# xmcd
#
# Track frame offsets: 
#        150
#        17596
#        33767
#        48434
#        68395
#        83480
#        105851
#        121618
#        133693
#        151264
#        175746
#        192830
#
# Disc length: 2776 seconds
#
# Revision: 1
# Processed by: cddbd v1.5.2PL0 Copyright (c) Steve Scherf et al.
# Submitted via: ExactAudioCopy v0.99pb5
#
DISCID=7b0ad60c
DTITLE=Head Hands and Feet - Tracks...Plus
DYEAR=1996
DGENRE=Country
TTITLE0=Let's Ge This Show On The Road
TTITLE1=Safety In Numbers
TTITLE2=Roadshow
TTITLE3=Harlequin
TTITLE4=Dancer
TTITLE5=Hot Property
TTITLE6=Jack Daniels
TTITLE7=Rhyme And Time
TTITLE8=Paper Chase
TTITLE9=Song And Dance
TTITLE10=Silver Mine
TTITLE11=Warming Up The Band
EXTD=YEAR: 1996 ID3G: 2
EXTT0=
EXTT1=
EXTT2=
EXTT3=
EXTT4=
EXTT5=
EXTT6=
EXTT7=
EXTT8=
EXTT9=
EXTT10=
EXTT11=
PLAYORDER=
